<svg width="7" height="9" viewBox="0 0 7 9" fill="none" xmlns="http://www.w3.org/2000/svg">
<path d="M6.61111 0H0.388889C0.175 0 0 0.2025 0 0.45V1.35C0 1.449 0.0272222 1.5435 0.0777778 1.62L2.33333 5.0985V8.55C2.33333 8.66935 2.37431 8.78381 2.44724 8.8682C2.52017 8.95259 2.61908 9 2.72222 9C2.78056 9 2.84278 8.982 2.89722 8.9505L4.45278 8.0505C4.51691 8.0131 4.57084 7.95589 4.6086 7.8852C4.64635 7.81451 4.66645 7.7331 4.66667 7.65V5.0985L6.92222 1.62C6.97278 1.5435 7 1.449 7 1.35V0.45C7 0.2025 6.825 0 6.61111 0ZM6.22222 1.2015L3.96667 4.68C3.91611 4.7565 3.88889 4.851 3.88889 4.95V7.371L3.11111 7.821V4.95C3.11111 4.851 3.08389 4.7565 3.03333 4.68L0.777778 1.2015V0.9H6.22222V1.2015Z" fill="white"/>
</svg>
